
      <svg
        width="300"
        height="885"
        viewBox="0 0 300 885"
        fill="none"
        xmlns="http://www.w3.org/2000/svg"
        role="img"
        aria-labelledby="descId"
      >
        <title id="titleId"></title>
        <desc id="descId"></desc>
        <style>
          .header {
            font: 600 18px 'Segoe UI', Ubuntu, Sans-Serif;
            fill: #81a1c1;
            animation: fadeInAnimation 0.8s ease-in-out forwards;
          }
          @supports(-moz-appearance: auto) {
            /* Selector detects Firefox */
            .header { font-size: 15.5px; }
          }
          
    @keyframes slideInAnimation {
      from {
        width: 0;
      }
      to {
        width: calc(100%-100px);
      }
    }
    @keyframes growWidthAnimation {
      from {
        width: 0;
      }
      to {
        width: 100%;
      }
    }
    .stat {
      font: 600 14px 'Segoe UI', Ubuntu, "Helvetica Neue", Sans-Serif; fill: #d8dee9;
    }
    @supports(-moz-appearance: auto) {
      /* Selector detects Firefox */
      .stat { font-size:12px; }
    }
    .bold { font-weight: 700 }
    .lang-name {
      font: 400 11px "Segoe UI", Ubuntu, Sans-Serif;
      fill: #d8dee9;
    }
    .stagger {
      opacity: 0;
      animation: fadeInAnimation 0.3s ease-in-out forwards;
    }
    #rect-mask rect{
      animation: slideInAnimation 1s ease-in-out forwards;
    }
    .lang-progress{
      animation: growWidthAnimation 0.6s ease-in-out forwards;
    }
    

          
      /* Animations */
      @keyframes scaleInAnimation {
        from {
          transform: translate(-5px, 5px) scale(0);
        }
        to {
          transform: translate(-5px, 5px) scale(1);
        }
      }
      @keyframes fadeInAnimation {
        from {
          opacity: 0;
        }
        to {
          opacity: 1;
        }
      }
    
          
        </style>

        

        <rect
          data-testid="card-bg"
          x="0.5"
          y="0.5"
          rx="4.5"
          height="99%"
          stroke="#e4e2e2"
          width="299"
          fill="#2e3440"
          stroke-opacity="1"
        />

        
      <g
        data-testid="card-title"
        transform="translate(25, 35)"
      >
        <g transform="translate(0, 0)">
      <text
        x="0"
        y="0"
        class="header"
        data-testid="header"
      >Most Used Languages</text>
    </g>
      </g>
    

        <g
          data-testid="main-card-body"
          transform="translate(0, 55)"
        >
          
    <svg data-testid="lang-items" x="25">
      <g transform="translate(0, 0)">
    <g class="stagger" style="animation-delay: 450ms">
      <text data-testid="lang-name" x="2" y="15" class="lang-name">Rust</text>
      <text x="215" y="34" class="lang-name">27.53%</text>
      
    <svg width="205" x="0" y="25">
      <rect rx="5" ry="5" x="0" y="0" width="205" height="8" fill="#ddd"></rect>
      <svg data-testid="lang-progress" width="27.531463831080366%">
        <rect
            height="8"
            fill="#dea584"
            rx="5" ry="5" x="0" y="0"
            class="lang-progress"
            style="animation-delay: 750ms;"
        />
      </svg>
    </svg>
  
    </g>
  </g><g transform="translate(0, 40)">
    <g class="stagger" style="animation-delay: 600ms">
      <text data-testid="lang-name" x="2" y="15" class="lang-name">C</text>
      <text x="215" y="34" class="lang-name">20.19%</text>
      
    <svg width="205" x="0" y="25">
      <rect rx="5" ry="5" x="0" y="0" width="205" height="8" fill="#ddd"></rect>
      <svg data-testid="lang-progress" width="20.186169048397772%">
        <rect
            height="8"
            fill="#555555"
            rx="5" ry="5" x="0" y="0"
            class="lang-progress"
            style="animation-delay: 900ms;"
        />
      </svg>
    </svg>
  
    </g>
  </g><g transform="translate(0, 80)">
    <g class="stagger" style="animation-delay: 750ms">
      <text data-testid="lang-name" x="2" y="15" class="lang-name">C++</text>
      <text x="215" y="34" class="lang-name">9.82%</text>
      
    <svg width="205" x="0" y="25">
      <rect rx="5" ry="5" x="0" y="0" width="205" height="8" fill="#ddd"></rect>
      <svg data-testid="lang-progress" width="9.82042374125361%">
        <rect
            height="8"
            fill="#f34b7d"
            rx="5" ry="5" x="0" y="0"
            class="lang-progress"
            style="animation-delay: 1050ms;"
        />
      </svg>
    </svg>
  
    </g>
  </g><g transform="translate(0, 120)">
    <g class="stagger" style="animation-delay: 900ms">
      <text data-testid="lang-name" x="2" y="15" class="lang-name">C#</text>
      <text x="215" y="34" class="lang-name">5.23%</text>
      
    <svg width="205" x="0" y="25">
      <rect rx="5" ry="5" x="0" y="0" width="205" height="8" fill="#ddd"></rect>
      <svg data-testid="lang-progress" width="5.229421353942668%">
        <rect
            height="8"
            fill="#178600"
            rx="5" ry="5" x="0" y="0"
            class="lang-progress"
            style="animation-delay: 1200ms;"
        />
      </svg>
    </svg>
  
    </g>
  </g><g transform="translate(0, 160)">
    <g class="stagger" style="animation-delay: 1050ms">
      <text data-testid="lang-name" x="2" y="15" class="lang-name">Swift</text>
      <text x="215" y="34" class="lang-name">4.94%</text>
      
    <svg width="205" x="0" y="25">
      <rect rx="5" ry="5" x="0" y="0" width="205" height="8" fill="#ddd"></rect>
      <svg data-testid="lang-progress" width="4.943948411420978%">
        <rect
            height="8"
            fill="#F05138"
            rx="5" ry="5" x="0" y="0"
            class="lang-progress"
            style="animation-delay: 1350ms;"
        />
      </svg>
    </svg>
  
    </g>
  </g><g transform="translate(0, 200)">
    <g class="stagger" style="animation-delay: 1200ms">
      <text data-testid="lang-name" x="2" y="15" class="lang-name">Java</text>
      <text x="215" y="34" class="lang-name">4.59%</text>
      
    <svg width="205" x="0" y="25">
      <rect rx="5" ry="5" x="0" y="0" width="205" height="8" fill="#ddd"></rect>
      <svg data-testid="lang-progress" width="4.5917749798482115%">
        <rect
            height="8"
            fill="#b07219"
            rx="5" ry="5" x="0" y="0"
            class="lang-progress"
            style="animation-delay: 1500ms;"
        />
      </svg>
    </svg>
  
    </g>
  </g><g transform="translate(0, 240)">
    <g class="stagger" style="animation-delay: 1350ms">
      <text data-testid="lang-name" x="2" y="15" class="lang-name">Nix</text>
      <text x="215" y="34" class="lang-name">3.83%</text>
      
    <svg width="205" x="0" y="25">
      <rect rx="5" ry="5" x="0" y="0" width="205" height="8" fill="#ddd"></rect>
      <svg data-testid="lang-progress" width="3.829998738098856%">
        <rect
            height="8"
            fill="#7e7eff"
            rx="5" ry="5" x="0" y="0"
            class="lang-progress"
            style="animation-delay: 1650ms;"
        />
      </svg>
    </svg>
  
    </g>
  </g><g transform="translate(0, 280)">
    <g class="stagger" style="animation-delay: 1500ms">
      <text data-testid="lang-name" x="2" y="15" class="lang-name">Shell</text>
      <text x="215" y="34" class="lang-name">3.82%</text>
      
    <svg width="205" x="0" y="25">
      <rect rx="5" ry="5" x="0" y="0" width="205" height="8" fill="#ddd"></rect>
      <svg data-testid="lang-progress" width="3.8238179978006865%">
        <rect
            height="8"
            fill="#89e051"
            rx="5" ry="5" x="0" y="0"
            class="lang-progress"
            style="animation-delay: 1800ms;"
        />
      </svg>
    </svg>
  
    </g>
  </g><g transform="translate(0, 320)">
    <g class="stagger" style="animation-delay: 1650ms">
      <text data-testid="lang-name" x="2" y="15" class="lang-name">Typst</text>
      <text x="215" y="34" class="lang-name">3.48%</text>
      
    <svg width="205" x="0" y="25">
      <rect rx="5" ry="5" x="0" y="0" width="205" height="8" fill="#ddd"></rect>
      <svg data-testid="lang-progress" width="3.478984195331996%">
        <rect
            height="8"
            fill="#239dad"
            rx="5" ry="5" x="0" y="0"
            class="lang-progress"
            style="animation-delay: 1950ms;"
        />
      </svg>
    </svg>
  
    </g>
  </g><g transform="translate(0, 360)">
    <g class="stagger" style="animation-delay: 1800ms">
      <text data-testid="lang-name" x="2" y="15" class="lang-name">Assembly</text>
      <text x="215" y="34" class="lang-name">2.88%</text>
      
    <svg width="205" x="0" y="25">
      <rect rx="5" ry="5" x="0" y="0" width="205" height="8" fill="#ddd"></rect>
      <svg data-testid="lang-progress" width="2.881641398598517%">
        <rect
            height="8"
            fill="#6E4C13"
            rx="5" ry="5" x="0" y="0"
            class="lang-progress"
            style="animation-delay: 2100ms;"
        />
      </svg>
    </svg>
  
    </g>
  </g><g transform="translate(0, 400)">
    <g class="stagger" style="animation-delay: 1950ms">
      <text data-testid="lang-name" x="2" y="15" class="lang-name">Svelte</text>
      <text x="215" y="34" class="lang-name">2.31%</text>
      
    <svg width="205" x="0" y="25">
      <rect rx="5" ry="5" x="0" y="0" width="205" height="8" fill="#ddd"></rect>
      <svg data-testid="lang-progress" width="2.3061887237543877%">
        <rect
            height="8"
            fill="#ff3e00"
            rx="5" ry="5" x="0" y="0"
            class="lang-progress"
            style="animation-delay: 2250ms;"
        />
      </svg>
    </svg>
  
    </g>
  </g><g transform="translate(0, 440)">
    <g class="stagger" style="animation-delay: 2100ms">
      <text data-testid="lang-name" x="2" y="15" class="lang-name">CSS</text>
      <text x="215" y="34" class="lang-name">2.26%</text>
      
    <svg width="205" x="0" y="25">
      <rect rx="5" ry="5" x="0" y="0" width="205" height="8" fill="#ddd"></rect>
      <svg data-testid="lang-progress" width="2.2580304555978192%">
        <rect
            height="8"
            fill="#663399"
            rx="5" ry="5" x="0" y="0"
            class="lang-progress"
            style="animation-delay: 2400ms;"
        />
      </svg>
    </svg>
  
    </g>
  </g><g transform="translate(0, 480)">
    <g class="stagger" style="animation-delay: 2250ms">
      <text data-testid="lang-name" x="2" y="15" class="lang-name">PowerShell</text>
      <text x="215" y="34" class="lang-name">1.78%</text>
      
    <svg width="205" x="0" y="25">
      <rect rx="5" ry="5" x="0" y="0" width="205" height="8" fill="#ddd"></rect>
      <svg data-testid="lang-progress" width="2%">
        <rect
            height="8"
            fill="#012456"
            rx="5" ry="5" x="0" y="0"
            class="lang-progress"
            style="animation-delay: 2550ms;"
        />
      </svg>
    </svg>
  
    </g>
  </g><g transform="translate(0, 520)">
    <g class="stagger" style="animation-delay: 2400ms">
      <text data-testid="lang-name" x="2" y="15" class="lang-name">Haskell</text>
      <text x="215" y="34" class="lang-name">1.65%</text>
      
    <svg width="205" x="0" y="25">
      <rect rx="5" ry="5" x="0" y="0" width="205" height="8" fill="#ddd"></rect>
      <svg data-testid="lang-progress" width="2%">
        <rect
            height="8"
            fill="#5e5086"
            rx="5" ry="5" x="0" y="0"
            class="lang-progress"
            style="animation-delay: 2700ms;"
        />
      </svg>
    </svg>
  
    </g>
  </g><g transform="translate(0, 560)">
    <g class="stagger" style="animation-delay: 2550ms">
      <text data-testid="lang-name" x="2" y="15" class="lang-name">Cuda</text>
      <text x="215" y="34" class="lang-name">1.45%</text>
      
    <svg width="205" x="0" y="25">
      <rect rx="5" ry="5" x="0" y="0" width="205" height="8" fill="#ddd"></rect>
      <svg data-testid="lang-progress" width="2%">
        <rect
            height="8"
            fill="#3A4E3A"
            rx="5" ry="5" x="0" y="0"
            class="lang-progress"
            style="animation-delay: 2850ms;"
        />
      </svg>
    </svg>
  
    </g>
  </g><g transform="translate(0, 600)">
    <g class="stagger" style="animation-delay: 2700ms">
      <text data-testid="lang-name" x="2" y="15" class="lang-name">GDScript</text>
      <text x="215" y="34" class="lang-name">1.36%</text>
      
    <svg width="205" x="0" y="25">
      <rect rx="5" ry="5" x="0" y="0" width="205" height="8" fill="#ddd"></rect>
      <svg data-testid="lang-progress" width="2%">
        <rect
            height="8"
            fill="#355570"
            rx="5" ry="5" x="0" y="0"
            class="lang-progress"
            style="animation-delay: 3000ms;"
        />
      </svg>
    </svg>
  
    </g>
  </g><g transform="translate(0, 640)">
    <g class="stagger" style="animation-delay: 2850ms">
      <text data-testid="lang-name" x="2" y="15" class="lang-name">Makefile</text>
      <text x="215" y="34" class="lang-name">1.05%</text>
      
    <svg width="205" x="0" y="25">
      <rect rx="5" ry="5" x="0" y="0" width="205" height="8" fill="#ddd"></rect>
      <svg data-testid="lang-progress" width="2%">
        <rect
            height="8"
            fill="#427819"
            rx="5" ry="5" x="0" y="0"
            class="lang-progress"
            style="animation-delay: 3150ms;"
        />
      </svg>
    </svg>
  
    </g>
  </g><g transform="translate(0, 680)">
    <g class="stagger" style="animation-delay: 3000ms">
      <text data-testid="lang-name" x="2" y="15" class="lang-name">CMake</text>
      <text x="215" y="34" class="lang-name">0.94%</text>
      
    <svg width="205" x="0" y="25">
      <rect rx="5" ry="5" x="0" y="0" width="205" height="8" fill="#ddd"></rect>
      <svg data-testid="lang-progress" width="2%">
        <rect
            height="8"
            fill="#DA3434"
            rx="5" ry="5" x="0" y="0"
            class="lang-progress"
            style="animation-delay: 3300ms;"
        />
      </svg>
    </svg>
  
    </g>
  </g><g transform="translate(0, 720)">
    <g class="stagger" style="animation-delay: 3150ms">
      <text data-testid="lang-name" x="2" y="15" class="lang-name">Python</text>
      <text x="215" y="34" class="lang-name">0.47%</text>
      
    <svg width="205" x="0" y="25">
      <rect rx="5" ry="5" x="0" y="0" width="205" height="8" fill="#ddd"></rect>
      <svg data-testid="lang-progress" width="2%">
        <rect
            height="8"
            fill="#3572A5"
            rx="5" ry="5" x="0" y="0"
            class="lang-progress"
            style="animation-delay: 3450ms;"
        />
      </svg>
    </svg>
  
    </g>
  </g><g transform="translate(0, 760)">
    <g class="stagger" style="animation-delay: 3300ms">
      <text data-testid="lang-name" x="2" y="15" class="lang-name">Batchfile</text>
      <text x="215" y="34" class="lang-name">0.42%</text>
      
    <svg width="205" x="0" y="25">
      <rect rx="5" ry="5" x="0" y="0" width="205" height="8" fill="#ddd"></rect>
      <svg data-testid="lang-progress" width="2%">
        <rect
            height="8"
            fill="#C1F12E"
            rx="5" ry="5" x="0" y="0"
            class="lang-progress"
            style="animation-delay: 3600ms;"
        />
      </svg>
    </svg>
  
    </g>
  </g>
    </svg>
  
        </g>
      </svg>
    