<svg width="300" height="885" viewBox="0 0 300 885" fill="none" xmlns="http://www.w3.org/2000/svg" role="img" aria-labelledby="titleId descId">
  <title id="titleId">Most Used Languages</title>
  <desc id="descId">Most used languages across all included repositories</desc>
  <style>
    .header { font: 600 18px 'Segoe UI', Ubuntu, Sans-Serif; fill: #81a1c1; }
    .lang-name { font: 400 11px 'Segoe UI', Ubuntu, Sans-Serif; fill: #d8dee9; }
  </style>
  <rect data-testid="card-bg" x="0.5" y="0.5" rx="4.5" height="884" stroke="#e4e2e2" width="299" fill="#2e3440" />
  <g data-testid="card-title" transform="translate(25, 35)">
    <text class="header" data-testid="header">Most Used Languages</text>
  </g>
  <g data-testid="main-card-body" transform="translate(0, 55)">
    <svg data-testid="lang-items" x="25">
        <g transform="translate(0, 0)">
          <text data-testid="lang-name" x="2" y="15" class="lang-name">C++</text>
          <text x="215" y="34" class="lang-name">25.07%</text>
          <svg width="205" x="0" y="25">
            <rect data-testid="progress-background" rx="5" ry="5" width="205" height="8" fill="#ddd" />
            <svg data-testid="lang-progress" width="25.066070119534846%">
              <rect rx="5" ry="5" width="205" height="8" fill="#f34b7d" />
            </svg>
          </svg>
        </g>
        <g transform="translate(0, 40)">
          <text data-testid="lang-name" x="2" y="15" class="lang-name">Rust</text>
          <text x="215" y="34" class="lang-name">24.42%</text>
          <svg width="205" x="0" y="25">
            <rect data-testid="progress-background" rx="5" ry="5" width="205" height="8" fill="#ddd" />
            <svg data-testid="lang-progress" width="24.41596358682078%">
              <rect rx="5" ry="5" width="205" height="8" fill="#dea584" />
            </svg>
          </svg>
        </g>
        <g transform="translate(0, 80)">
          <text data-testid="lang-name" x="2" y="15" class="lang-name">C</text>
          <text x="215" y="34" class="lang-name">14.19%</text>
          <svg width="205" x="0" y="25">
            <rect data-testid="progress-background" rx="5" ry="5" width="205" height="8" fill="#ddd" />
            <svg data-testid="lang-progress" width="14.1948642485589%">
              <rect rx="5" ry="5" width="205" height="8" fill="#555555" />
            </svg>
          </svg>
        </g>
        <g transform="translate(0, 120)">
          <text data-testid="lang-name" x="2" y="15" class="lang-name">Typst</text>
          <text x="215" y="34" class="lang-name">4.10%</text>
          <svg width="205" x="0" y="25">
            <rect data-testid="progress-background" rx="5" ry="5" width="205" height="8" fill="#ddd" />
            <svg data-testid="lang-progress" width="4.1046878902555255%">
              <rect rx="5" ry="5" width="205" height="8" fill="#239dad" />
            </svg>
          </svg>
        </g>
        <g transform="translate(0, 160)">
          <text data-testid="lang-name" x="2" y="15" class="lang-name">Java</text>
          <text x="215" y="34" class="lang-name">3.89%</text>
          <svg width="205" x="0" y="25">
            <rect data-testid="progress-background" rx="5" ry="5" width="205" height="8" fill="#ddd" />
            <svg data-testid="lang-progress" width="3.8934258089588467%">
              <rect rx="5" ry="5" width="205" height="8" fill="#b07219" />
            </svg>
          </svg>
        </g>
        <g transform="translate(0, 200)">
          <text data-testid="lang-name" x="2" y="15" class="lang-name">Swift</text>
          <text x="215" y="34" class="lang-name">3.78%</text>
          <svg width="205" x="0" y="25">
            <rect data-testid="progress-background" rx="5" ry="5" width="205" height="8" fill="#ddd" />
            <svg data-testid="lang-progress" width="3.784413493001662%">
              <rect rx="5" ry="5" width="205" height="8" fill="#F05138" />
            </svg>
          </svg>
        </g>
        <g transform="translate(0, 240)">
          <text data-testid="lang-name" x="2" y="15" class="lang-name">C#</text>
          <text x="215" y="34" class="lang-name">3.71%</text>
          <svg width="205" x="0" y="25">
            <rect data-testid="progress-background" rx="5" ry="5" width="205" height="8" fill="#ddd" />
            <svg data-testid="lang-progress" width="3.7122796197462873%">
              <rect rx="5" ry="5" width="205" height="8" fill="#7355dd" />
            </svg>
          </svg>
        </g>
        <g transform="translate(0, 280)">
          <text data-testid="lang-name" x="2" y="15" class="lang-name">Shell</text>
          <text x="215" y="34" class="lang-name">2.99%</text>
          <svg width="205" x="0" y="25">
            <rect data-testid="progress-background" rx="5" ry="5" width="205" height="8" fill="#ddd" />
            <svg data-testid="lang-progress" width="2.9903998831431253%">
              <rect rx="5" ry="5" width="205" height="8" fill="#89e051" />
            </svg>
          </svg>
        </g>
        <g transform="translate(0, 320)">
          <text data-testid="lang-name" x="2" y="15" class="lang-name">GDScript</text>
          <text x="215" y="34" class="lang-name">2.37%</text>
          <svg width="205" x="0" y="25">
            <rect data-testid="progress-background" rx="5" ry="5" width="205" height="8" fill="#ddd" />
            <svg data-testid="lang-progress" width="2.3685157283402267%">
              <rect rx="5" ry="5" width="205" height="8" fill="#355570" />
            </svg>
          </svg>
        </g>
        <g transform="translate(0, 360)">
          <text data-testid="lang-name" x="2" y="15" class="lang-name">CSS</text>
          <text x="215" y="34" class="lang-name">2.14%</text>
          <svg width="205" x="0" y="25">
            <rect data-testid="progress-background" rx="5" ry="5" width="205" height="8" fill="#ddd" />
            <svg data-testid="lang-progress" width="2.144810553906996%">
              <rect rx="5" ry="5" width="205" height="8" fill="#663399" />
            </svg>
          </svg>
        </g>
        <g transform="translate(0, 400)">
          <text data-testid="lang-name" x="2" y="15" class="lang-name">Nix</text>
          <text x="215" y="34" class="lang-name">2.03%</text>
          <svg width="205" x="0" y="25">
            <rect data-testid="progress-background" rx="5" ry="5" width="205" height="8" fill="#ddd" />
            <svg data-testid="lang-progress" width="2.0347162298509804%">
              <rect rx="5" ry="5" width="205" height="8" fill="#7e7eff" />
            </svg>
          </svg>
        </g>
        <g transform="translate(0, 440)">
          <text data-testid="lang-name" x="2" y="15" class="lang-name">Assembly</text>
          <text x="215" y="34" class="lang-name">2.02%</text>
          <svg width="205" x="0" y="25">
            <rect data-testid="progress-background" rx="5" ry="5" width="205" height="8" fill="#ddd" />
            <svg data-testid="lang-progress" width="2.0178549369775367%">
              <rect rx="5" ry="5" width="205" height="8" fill="#6E4C13" />
            </svg>
          </svg>
        </g>
        <g transform="translate(0, 480)">
          <text data-testid="lang-name" x="2" y="15" class="lang-name">Svelte</text>
          <text x="215" y="34" class="lang-name">1.84%</text>
          <svg width="205" x="0" y="25">
            <rect data-testid="progress-background" rx="5" ry="5" width="205" height="8" fill="#ddd" />
            <svg data-testid="lang-progress" width="1.840405608769315%">
              <rect rx="5" ry="5" width="205" height="8" fill="#ff3e00" />
            </svg>
          </svg>
        </g>
        <g transform="translate(0, 520)">
          <text data-testid="lang-name" x="2" y="15" class="lang-name">PowerShell</text>
          <text x="215" y="34" class="lang-name">1.25%</text>
          <svg width="205" x="0" y="25">
            <rect data-testid="progress-background" rx="5" ry="5" width="205" height="8" fill="#ddd" />
            <svg data-testid="lang-progress" width="1.24692416656072%">
              <rect rx="5" ry="5" width="205" height="8" fill="#012456" />
            </svg>
          </svg>
        </g>
        <g transform="translate(0, 560)">
          <text data-testid="lang-name" x="2" y="15" class="lang-name">GLSL</text>
          <text x="215" y="34" class="lang-name">1.16%</text>
          <svg width="205" x="0" y="25">
            <rect data-testid="progress-background" rx="5" ry="5" width="205" height="8" fill="#ddd" />
            <svg data-testid="lang-progress" width="1.161445526753101%">
              <rect rx="5" ry="5" width="205" height="8" fill="#5686a5" />
            </svg>
          </svg>
        </g>
        <g transform="translate(0, 600)">
          <text data-testid="lang-name" x="2" y="15" class="lang-name">Haskell</text>
          <text x="215" y="34" class="lang-name">1.15%</text>
          <svg width="205" x="0" y="25">
            <rect data-testid="progress-background" rx="5" ry="5" width="205" height="8" fill="#ddd" />
            <svg data-testid="lang-progress" width="1.154773143476979%">
              <rect rx="5" ry="5" width="205" height="8" fill="#5e5086" />
            </svg>
          </svg>
        </g>
        <g transform="translate(0, 640)">
          <text data-testid="lang-name" x="2" y="15" class="lang-name">CMake</text>
          <text x="215" y="34" class="lang-name">1.06%</text>
          <svg width="205" x="0" y="25">
            <rect data-testid="progress-background" rx="5" ry="5" width="205" height="8" fill="#ddd" />
            <svg data-testid="lang-progress" width="1.064245132541484%">
              <rect rx="5" ry="5" width="205" height="8" fill="#DA3434" />
            </svg>
          </svg>
        </g>
        <g transform="translate(0, 680)">
          <text data-testid="lang-name" x="2" y="15" class="lang-name">Cuda</text>
          <text x="215" y="34" class="lang-name">1.01%</text>
          <svg width="205" x="0" y="25">
            <rect data-testid="progress-background" rx="5" ry="5" width="205" height="8" fill="#ddd" />
            <svg data-testid="lang-progress" width="1.0142924253121368%">
              <rect rx="5" ry="5" width="205" height="8" fill="#3A4E3A" />
            </svg>
          </svg>
        </g>
        <g transform="translate(0, 720)">
          <text data-testid="lang-name" x="2" y="15" class="lang-name">JavaScript</text>
          <text x="215" y="34" class="lang-name">0.90%</text>
          <svg width="205" x="0" y="25">
            <rect data-testid="progress-background" rx="5" ry="5" width="205" height="8" fill="#ddd" />
            <svg data-testid="lang-progress" width="0.8965338772227377%">
              <rect rx="5" ry="5" width="205" height="8" fill="#f1e05a" />
            </svg>
          </svg>
        </g>
        <g transform="translate(0, 760)">
          <text data-testid="lang-name" x="2" y="15" class="lang-name">Makefile</text>
          <text x="215" y="34" class="lang-name">0.89%</text>
          <svg width="205" x="0" y="25">
            <rect data-testid="progress-background" rx="5" ry="5" width="205" height="8" fill="#ddd" />
            <svg data-testid="lang-progress" width="0.8933780202678151%">
              <rect rx="5" ry="5" width="205" height="8" fill="#427819" />
            </svg>
          </svg>
        </g>
    </svg>
  </g>
</svg>
