<svg width="300" height="885" viewBox="0 0 300 885" fill="none" xmlns="http://www.w3.org/2000/svg" role="img" aria-labelledby="titleId descId">
  <title id="titleId">Most Used Languages</title>
  <desc id="descId">Most used languages across all included repositories</desc>
  <style>
    .header { font: 600 18px 'Segoe UI', Ubuntu, Sans-Serif; fill: #81a1c1; }
    .lang-name { font: 400 11px 'Segoe UI', Ubuntu, Sans-Serif; fill: #d8dee9; }
  </style>
  <rect data-testid="card-bg" x="0.5" y="0.5" rx="4.5" height="884" stroke="#e4e2e2" width="299" fill="#2e3440" />
  <g data-testid="card-title" transform="translate(25, 35)">
    <text class="header" data-testid="header">Most Used Languages</text>
  </g>
  <g data-testid="main-card-body" transform="translate(0, 55)">
    <svg data-testid="lang-items" x="25">
        <g transform="translate(0, 0)">
          <text data-testid="lang-name" x="2" y="15" class="lang-name">C++</text>
          <text x="215" y="34" class="lang-name">28.91%</text>
          <svg width="205" x="0" y="25">
            <rect data-testid="progress-background" rx="5" ry="5" width="205" height="8" fill="#ddd" />
            <svg data-testid="lang-progress" width="28.906096763648254%">
              <rect rx="5" ry="5" width="205" height="8" fill="#f34b7d" />
            </svg>
          </svg>
        </g>
        <g transform="translate(0, 40)">
          <text data-testid="lang-name" x="2" y="15" class="lang-name">Rust</text>
          <text x="215" y="34" class="lang-name">22.13%</text>
          <svg width="205" x="0" y="25">
            <rect data-testid="progress-background" rx="5" ry="5" width="205" height="8" fill="#ddd" />
            <svg data-testid="lang-progress" width="22.130189604445896%">
              <rect rx="5" ry="5" width="205" height="8" fill="#dea584" />
            </svg>
          </svg>
        </g>
        <g transform="translate(0, 80)">
          <text data-testid="lang-name" x="2" y="15" class="lang-name">C</text>
          <text x="215" y="34" class="lang-name">12.87%</text>
          <svg width="205" x="0" y="25">
            <rect data-testid="progress-background" rx="5" ry="5" width="205" height="8" fill="#ddd" />
            <svg data-testid="lang-progress" width="12.865969271003596%">
              <rect rx="5" ry="5" width="205" height="8" fill="#555555" />
            </svg>
          </svg>
        </g>
        <g transform="translate(0, 120)">
          <text data-testid="lang-name" x="2" y="15" class="lang-name">Typst</text>
          <text x="215" y="34" class="lang-name">3.72%</text>
          <svg width="205" x="0" y="25">
            <rect data-testid="progress-background" rx="5" ry="5" width="205" height="8" fill="#ddd" />
            <svg data-testid="lang-progress" width="3.7204151683556717%">
              <rect rx="5" ry="5" width="205" height="8" fill="#239dad" />
            </svg>
          </svg>
        </g>
        <g transform="translate(0, 160)">
          <text data-testid="lang-name" x="2" y="15" class="lang-name">Java</text>
          <text x="215" y="34" class="lang-name">3.53%</text>
          <svg width="205" x="0" y="25">
            <rect data-testid="progress-background" rx="5" ry="5" width="205" height="8" fill="#ddd" />
            <svg data-testid="lang-progress" width="3.5289310232101996%">
              <rect rx="5" ry="5" width="205" height="8" fill="#b07219" />
            </svg>
          </svg>
        </g>
        <g transform="translate(0, 200)">
          <text data-testid="lang-name" x="2" y="15" class="lang-name">Swift</text>
          <text x="215" y="34" class="lang-name">3.43%</text>
          <svg width="205" x="0" y="25">
            <rect data-testid="progress-background" rx="5" ry="5" width="205" height="8" fill="#ddd" />
            <svg data-testid="lang-progress" width="3.4301242236024847%">
              <rect rx="5" ry="5" width="205" height="8" fill="#F05138" />
            </svg>
          </svg>
        </g>
        <g transform="translate(0, 240)">
          <text data-testid="lang-name" x="2" y="15" class="lang-name">Jupyter Notebook</text>
          <text x="215" y="34" class="lang-name">3.41%</text>
          <svg width="205" x="0" y="25">
            <rect data-testid="progress-background" rx="5" ry="5" width="205" height="8" fill="#ddd" />
            <svg data-testid="lang-progress" width="3.410918600849951%">
              <rect rx="5" ry="5" width="205" height="8" fill="#DA5B0B" />
            </svg>
          </svg>
        </g>
        <g transform="translate(0, 280)">
          <text data-testid="lang-name" x="2" y="15" class="lang-name">C#</text>
          <text x="215" y="34" class="lang-name">3.36%</text>
          <svg width="205" x="0" y="25">
            <rect data-testid="progress-background" rx="5" ry="5" width="205" height="8" fill="#ddd" />
            <svg data-testid="lang-progress" width="3.3647433801896045%">
              <rect rx="5" ry="5" width="205" height="8" fill="#7355dd" />
            </svg>
          </svg>
        </g>
        <g transform="translate(0, 320)">
          <text data-testid="lang-name" x="2" y="15" class="lang-name">Shell</text>
          <text x="215" y="34" class="lang-name">2.80%</text>
          <svg width="205" x="0" y="25">
            <rect data-testid="progress-background" rx="5" ry="5" width="205" height="8" fill="#ddd" />
            <svg data-testid="lang-progress" width="2.7992808107224585%">
              <rect rx="5" ry="5" width="205" height="8" fill="#89e051" />
            </svg>
          </svg>
        </g>
        <g transform="translate(0, 360)">
          <text data-testid="lang-name" x="2" y="15" class="lang-name">GDScript</text>
          <text x="215" y="34" class="lang-name">2.15%</text>
          <svg width="205" x="0" y="25">
            <rect data-testid="progress-background" rx="5" ry="5" width="205" height="8" fill="#ddd" />
            <svg data-testid="lang-progress" width="2.1467799934619154%">
              <rect rx="5" ry="5" width="205" height="8" fill="#355570" />
            </svg>
          </svg>
        </g>
        <g transform="translate(0, 400)">
          <text data-testid="lang-name" x="2" y="15" class="lang-name">CSS</text>
          <text x="215" y="34" class="lang-name">1.94%</text>
          <svg width="205" x="0" y="25">
            <rect data-testid="progress-background" rx="5" ry="5" width="205" height="8" fill="#ddd" />
            <svg data-testid="lang-progress" width="1.9440176528277213%">
              <rect rx="5" ry="5" width="205" height="8" fill="#663399" />
            </svg>
          </svg>
        </g>
        <g transform="translate(0, 440)">
          <text data-testid="lang-name" x="2" y="15" class="lang-name">Nix</text>
          <text x="215" y="34" class="lang-name">1.89%</text>
          <svg width="205" x="0" y="25">
            <rect data-testid="progress-background" rx="5" ry="5" width="205" height="8" fill="#ddd" />
            <svg data-testid="lang-progress" width="1.88893429225237%">
              <rect rx="5" ry="5" width="205" height="8" fill="#7e7eff" />
            </svg>
          </svg>
        </g>
        <g transform="translate(0, 480)">
          <text data-testid="lang-name" x="2" y="15" class="lang-name">Assembly</text>
          <text x="215" y="34" class="lang-name">1.83%</text>
          <svg width="205" x="0" y="25">
            <rect data-testid="progress-background" rx="5" ry="5" width="205" height="8" fill="#ddd" />
            <svg data-testid="lang-progress" width="1.8289473684210527%">
              <rect rx="5" ry="5" width="205" height="8" fill="#6E4C13" />
            </svg>
          </svg>
        </g>
        <g transform="translate(0, 520)">
          <text data-testid="lang-name" x="2" y="15" class="lang-name">Svelte</text>
          <text x="215" y="34" class="lang-name">1.67%</text>
          <svg width="205" x="0" y="25">
            <rect data-testid="progress-background" rx="5" ry="5" width="205" height="8" fill="#ddd" />
            <svg data-testid="lang-progress" width="1.6681104936253677%">
              <rect rx="5" ry="5" width="205" height="8" fill="#ff3e00" />
            </svg>
          </svg>
        </g>
        <g transform="translate(0, 560)">
          <text data-testid="lang-name" x="2" y="15" class="lang-name">PowerShell</text>
          <text x="215" y="34" class="lang-name">1.13%</text>
          <svg width="205" x="0" y="25">
            <rect data-testid="progress-background" rx="5" ry="5" width="205" height="8" fill="#ddd" />
            <svg data-testid="lang-progress" width="1.1301896044458974%">
              <rect rx="5" ry="5" width="205" height="8" fill="#012456" />
            </svg>
          </svg>
        </g>
        <g transform="translate(0, 600)">
          <text data-testid="lang-name" x="2" y="15" class="lang-name">CMake</text>
          <text x="215" y="34" class="lang-name">1.11%</text>
          <svg width="205" x="0" y="25">
            <rect data-testid="progress-background" rx="5" ry="5" width="205" height="8" fill="#ddd" />
            <svg data-testid="lang-progress" width="1.1149068322981368%">
              <rect rx="5" ry="5" width="205" height="8" fill="#DA3434" />
            </svg>
          </svg>
        </g>
        <g transform="translate(0, 640)">
          <text data-testid="lang-name" x="2" y="15" class="lang-name">GLSL</text>
          <text x="215" y="34" class="lang-name">1.10%</text>
          <svg width="205" x="0" y="25">
            <rect data-testid="progress-background" rx="5" ry="5" width="205" height="8" fill="#ddd" />
            <svg data-testid="lang-progress" width="1.0988885256619811%">
              <rect rx="5" ry="5" width="205" height="8" fill="#5686a5" />
            </svg>
          </svg>
        </g>
        <g transform="translate(0, 680)">
          <text data-testid="lang-name" x="2" y="15" class="lang-name">Haskell</text>
          <text x="215" y="34" class="lang-name">1.05%</text>
          <svg width="205" x="0" y="25">
            <rect data-testid="progress-background" rx="5" ry="5" width="205" height="8" fill="#ddd" />
            <svg data-testid="lang-progress" width="1.0466655769859432%">
              <rect rx="5" ry="5" width="205" height="8" fill="#5e5086" />
            </svg>
          </svg>
        </g>
        <g transform="translate(0, 720)">
          <text data-testid="lang-name" x="2" y="15" class="lang-name">Kotlin</text>
          <text x="215" y="34" class="lang-name">1.04%</text>
          <svg width="205" x="0" y="25">
            <rect data-testid="progress-background" rx="5" ry="5" width="205" height="8" fill="#ddd" />
            <svg data-testid="lang-progress" width="1.044785877737823%">
              <rect rx="5" ry="5" width="205" height="8" fill="#A97BFF" />
            </svg>
          </svg>
        </g>
        <g transform="translate(0, 760)">
          <text data-testid="lang-name" x="2" y="15" class="lang-name">Makefile</text>
          <text x="215" y="34" class="lang-name">0.93%</text>
          <svg width="205" x="0" y="25">
            <rect data-testid="progress-background" rx="5" ry="5" width="205" height="8" fill="#ddd" />
            <svg data-testid="lang-progress" width="0.9311049362536776%">
              <rect rx="5" ry="5" width="205" height="8" fill="#427819" />
            </svg>
          </svg>
        </g>
    </svg>
  </g>
</svg>
