<svg width="300" height="885" viewBox="0 0 300 885" fill="none" xmlns="http://www.w3.org/2000/svg" role="img" aria-labelledby="titleId descId">
  <title id="titleId">Most Used Languages</title>
  <desc id="descId">Most used languages across all included repositories</desc>
  <style>
    .header { font: 600 18px 'Segoe UI', Ubuntu, Sans-Serif; fill: #81a1c1; }
    .lang-name { font: 400 11px 'Segoe UI', Ubuntu, Sans-Serif; fill: #d8dee9; }
  </style>
  <rect data-testid="card-bg" x="0.5" y="0.5" rx="4.5" height="884" stroke="#e4e2e2" width="299" fill="#2e3440" />
  <g data-testid="card-title" transform="translate(25, 35)">
    <text class="header" data-testid="header">Most Used Languages</text>
  </g>
  <g data-testid="main-card-body" transform="translate(0, 55)">
    <svg data-testid="lang-items" x="25">
        <g transform="translate(0, 0)">
          <text data-testid="lang-name" x="2" y="15" class="lang-name">C++</text>
          <text x="215" y="34" class="lang-name">29.12%</text>
          <svg width="205" x="0" y="25">
            <rect data-testid="progress-background" rx="5" ry="5" width="205" height="8" fill="#ddd" />
            <svg data-testid="lang-progress" width="29.120515269761267%">
              <rect rx="5" ry="5" width="205" height="8" fill="#f34b7d" />
            </svg>
          </svg>
        </g>
        <g transform="translate(0, 40)">
          <text data-testid="lang-name" x="2" y="15" class="lang-name">Rust</text>
          <text x="215" y="34" class="lang-name">22.93%</text>
          <svg width="205" x="0" y="25">
            <rect data-testid="progress-background" rx="5" ry="5" width="205" height="8" fill="#ddd" />
            <svg data-testid="lang-progress" width="22.93046974500718%">
              <rect rx="5" ry="5" width="205" height="8" fill="#dea584" />
            </svg>
          </svg>
        </g>
        <g transform="translate(0, 80)">
          <text data-testid="lang-name" x="2" y="15" class="lang-name">C</text>
          <text x="215" y="34" class="lang-name">13.33%</text>
          <svg width="205" x="0" y="25">
            <rect data-testid="progress-background" rx="5" ry="5" width="205" height="8" fill="#ddd" />
            <svg data-testid="lang-progress" width="13.331233233070483%">
              <rect rx="5" ry="5" width="205" height="8" fill="#555555" />
            </svg>
          </svg>
        </g>
        <g transform="translate(0, 120)">
          <text data-testid="lang-name" x="2" y="15" class="lang-name">Typst</text>
          <text x="215" y="34" class="lang-name">3.85%</text>
          <svg width="205" x="0" y="25">
            <rect data-testid="progress-background" rx="5" ry="5" width="205" height="8" fill="#ddd" />
            <svg data-testid="lang-progress" width="3.854954204265236%">
              <rect rx="5" ry="5" width="205" height="8" fill="#239dad" />
            </svg>
          </svg>
        </g>
        <g transform="translate(0, 160)">
          <text data-testid="lang-name" x="2" y="15" class="lang-name">Java</text>
          <text x="215" y="34" class="lang-name">3.66%</text>
          <svg width="205" x="0" y="25">
            <rect data-testid="progress-background" rx="5" ry="5" width="205" height="8" fill="#ddd" />
            <svg data-testid="lang-progress" width="3.656545538303119%">
              <rect rx="5" ry="5" width="205" height="8" fill="#b07219" />
            </svg>
          </svg>
        </g>
        <g transform="translate(0, 200)">
          <text data-testid="lang-name" x="2" y="15" class="lang-name">Swift</text>
          <text x="215" y="34" class="lang-name">3.55%</text>
          <svg width="205" x="0" y="25">
            <rect data-testid="progress-background" rx="5" ry="5" width="205" height="8" fill="#ddd" />
            <svg data-testid="lang-progress" width="3.55416565048912%">
              <rect rx="5" ry="5" width="205" height="8" fill="#F05138" />
            </svg>
          </svg>
        </g>
        <g transform="translate(0, 240)">
          <text data-testid="lang-name" x="2" y="15" class="lang-name">C#</text>
          <text x="215" y="34" class="lang-name">3.49%</text>
          <svg width="205" x="0" y="25">
            <rect data-testid="progress-background" rx="5" ry="5" width="205" height="8" fill="#ddd" />
            <svg data-testid="lang-progress" width="3.4864204807197248%">
              <rect rx="5" ry="5" width="205" height="8" fill="#7355dd" />
            </svg>
          </svg>
        </g>
        <g transform="translate(0, 280)">
          <text data-testid="lang-name" x="2" y="15" class="lang-name">Shell</text>
          <text x="215" y="34" class="lang-name">2.90%</text>
          <svg width="205" x="0" y="25">
            <rect data-testid="progress-background" rx="5" ry="5" width="205" height="8" fill="#ddd" />
            <svg data-testid="lang-progress" width="2.900509443676666%">
              <rect rx="5" ry="5" width="205" height="8" fill="#89e051" />
            </svg>
          </svg>
        </g>
        <g transform="translate(0, 320)">
          <text data-testid="lang-name" x="2" y="15" class="lang-name">GDScript</text>
          <text x="215" y="34" class="lang-name">2.22%</text>
          <svg width="205" x="0" y="25">
            <rect data-testid="progress-background" rx="5" ry="5" width="205" height="8" fill="#ddd" />
            <svg data-testid="lang-progress" width="2.2244126493780993%">
              <rect rx="5" ry="5" width="205" height="8" fill="#355570" />
            </svg>
          </svg>
        </g>
        <g transform="translate(0, 360)">
          <text data-testid="lang-name" x="2" y="15" class="lang-name">CSS</text>
          <text x="215" y="34" class="lang-name">2.01%</text>
          <svg width="205" x="0" y="25">
            <rect data-testid="progress-background" rx="5" ry="5" width="205" height="8" fill="#ddd" />
            <svg data-testid="lang-progress" width="2.014317941630762%">
              <rect rx="5" ry="5" width="205" height="8" fill="#663399" />
            </svg>
          </svg>
        </g>
        <g transform="translate(0, 400)">
          <text data-testid="lang-name" x="2" y="15" class="lang-name">Nix</text>
          <text x="215" y="34" class="lang-name">1.96%</text>
          <svg width="205" x="0" y="25">
            <rect data-testid="progress-background" rx="5" ry="5" width="205" height="8" fill="#ddd" />
            <svg data-testid="lang-progress" width="1.957242636100046%">
              <rect rx="5" ry="5" width="205" height="8" fill="#7e7eff" />
            </svg>
          </svg>
        </g>
        <g transform="translate(0, 440)">
          <text data-testid="lang-name" x="2" y="15" class="lang-name">Assembly</text>
          <text x="215" y="34" class="lang-name">1.90%</text>
          <svg width="205" x="0" y="25">
            <rect data-testid="progress-background" rx="5" ry="5" width="205" height="8" fill="#ddd" />
            <svg data-testid="lang-progress" width="1.8950864428366256%">
              <rect rx="5" ry="5" width="205" height="8" fill="#6E4C13" />
            </svg>
          </svg>
        </g>
        <g transform="translate(0, 480)">
          <text data-testid="lang-name" x="2" y="15" class="lang-name">Svelte</text>
          <text x="215" y="34" class="lang-name">1.73%</text>
          <svg width="205" x="0" y="25">
            <rect data-testid="progress-background" rx="5" ry="5" width="205" height="8" fill="#ddd" />
            <svg data-testid="lang-progress" width="1.7284333252039128%">
              <rect rx="5" ry="5" width="205" height="8" fill="#ff3e00" />
            </svg>
          </svg>
        </g>
        <g transform="translate(0, 520)">
          <text data-testid="lang-name" x="2" y="15" class="lang-name">PowerShell</text>
          <text x="215" y="34" class="lang-name">1.17%</text>
          <svg width="205" x="0" y="25">
            <rect data-testid="progress-background" rx="5" ry="5" width="205" height="8" fill="#ddd" />
            <svg data-testid="lang-progress" width="1.171059940926212%">
              <rect rx="5" ry="5" width="205" height="8" fill="#012456" />
            </svg>
          </svg>
        </g>
        <g transform="translate(0, 560)">
          <text data-testid="lang-name" x="2" y="15" class="lang-name">GLSL</text>
          <text x="215" y="34" class="lang-name">1.17%</text>
          <svg width="205" x="0" y="25">
            <rect data-testid="progress-background" rx="5" ry="5" width="205" height="8" fill="#ddd" />
            <svg data-testid="lang-progress" width="1.1659790531935075%">
              <rect rx="5" ry="5" width="205" height="8" fill="#5686a5" />
            </svg>
          </svg>
        </g>
        <g transform="translate(0, 600)">
          <text data-testid="lang-name" x="2" y="15" class="lang-name">CMake</text>
          <text x="215" y="34" class="lang-name">1.16%</text>
          <svg width="205" x="0" y="25">
            <rect data-testid="progress-background" rx="5" ry="5" width="205" height="8" fill="#ddd" />
            <svg data-testid="lang-progress" width="1.1647935127225428%">
              <rect rx="5" ry="5" width="205" height="8" fill="#DA3434" />
            </svg>
          </svg>
        </g>
        <g transform="translate(0, 640)">
          <text data-testid="lang-name" x="2" y="15" class="lang-name">Haskell</text>
          <text x="215" y="34" class="lang-name">1.08%</text>
          <svg width="205" x="0" y="25">
            <rect data-testid="progress-background" rx="5" ry="5" width="205" height="8" fill="#ddd" />
            <svg data-testid="lang-progress" width="1.0845154865458093%">
              <rect rx="5" ry="5" width="205" height="8" fill="#5e5086" />
            </svg>
          </svg>
        </g>
        <g transform="translate(0, 680)">
          <text data-testid="lang-name" x="2" y="15" class="lang-name">Makefile</text>
          <text x="215" y="34" class="lang-name">0.96%</text>
          <svg width="205" x="0" y="25">
            <rect data-testid="progress-background" rx="5" ry="5" width="205" height="8" fill="#ddd" />
            <svg data-testid="lang-progress" width="0.9647758989784029%">
              <rect rx="5" ry="5" width="205" height="8" fill="#427819" />
            </svg>
          </svg>
        </g>
        <g transform="translate(0, 720)">
          <text data-testid="lang-name" x="2" y="15" class="lang-name">Cuda</text>
          <text x="215" y="34" class="lang-name">0.95%</text>
          <svg width="205" x="0" y="25">
            <rect data-testid="progress-background" rx="5" ry="5" width="205" height="8" fill="#ddd" />
            <svg data-testid="lang-progress" width="0.9525817684199116%">
              <rect rx="5" ry="5" width="205" height="8" fill="#3A4E3A" />
            </svg>
          </svg>
        </g>
        <g transform="translate(0, 760)">
          <text data-testid="lang-name" x="2" y="15" class="lang-name">JavaScript</text>
          <text x="215" y="34" class="lang-name">0.84%</text>
          <svg width="205" x="0" y="25">
            <rect data-testid="progress-background" rx="5" ry="5" width="205" height="8" fill="#ddd" />
            <svg data-testid="lang-progress" width="0.8419877787713735%">
              <rect rx="5" ry="5" width="205" height="8" fill="#f1e05a" />
            </svg>
          </svg>
        </g>
    </svg>
  </g>
</svg>
